<svg xmlns="http://www.w3.org/2000/svg" xmlns:xlink="http://www.w3.org/1999/xlink" width="400" zoomAndPan="magnify" viewBox="0 0 300 299.999988" height="400" preserveAspectRatio="xMidYMid meet" version="1.0"><defs><g/><clipPath id="d23a32f23b"><path d="M 4.433594 19 L 293 19 L 293 280.738281 L 4.433594 280.738281 Z M 4.433594 19 " clip-rule="nonzero"/></clipPath></defs><g clip-path="url(#d23a32f23b)"><path fill="#ffffff" d="M 16.871094 139.859375 C 23.738281 139.859375 29.304688 145.425781 29.304688 152.296875 C 29.304688 159.164062 23.738281 164.738281 16.871094 164.738281 C 10.003906 164.738281 4.433594 159.164062 4.433594 152.296875 C 4.433594 145.433594 10.003906 139.859375 16.871094 139.859375 M 24.785156 69.914062 C 30.652344 69.914062 35.414062 74.667969 35.414062 80.542969 C 35.414062 86.414062 30.652344 91.171875 24.785156 91.171875 C 18.914062 91.171875 14.152344 86.414062 14.152344 80.542969 C 14.152344 74.667969 18.914062 69.914062 24.785156 69.914062 Z M 70.417969 102.140625 C 79.664062 102.140625 87.164062 109.640625 87.164062 118.886719 C 87.164062 128.132812 79.664062 135.628906 70.417969 135.628906 C 61.167969 135.628906 53.667969 128.128906 53.667969 118.886719 C 53.675781 109.636719 61.167969 102.140625 70.417969 102.140625 Z M 89.761719 37.707031 C 98.316406 37.707031 105.257812 44.640625 105.257812 53.203125 C 105.257812 61.757812 98.316406 68.699219 89.761719 68.699219 C 81.207031 68.699219 74.273438 61.757812 74.273438 53.203125 C 74.273438 44.640625 81.207031 37.707031 89.761719 37.707031 Z M 181.46875 48.613281 L 212.027344 93.445312 L 213.253906 93.417969 C 228.640625 93.417969 241.113281 105.894531 241.113281 121.273438 C 241.113281 136.65625 228.640625 149.136719 213.253906 149.136719 C 206.015625 149.136719 199.1875 146.335938 194.074219 141.480469 L 177.355469 147.542969 C 175.601562 153.472656 171.523438 158.394531 166.199219 161.269531 C 170.589844 162.730469 174.4375 165.53125 177.160156 169.285156 L 198.113281 169.195312 C 202.140625 163.933594 208.457031 160.703125 215.304688 160.703125 C 227.25 160.703125 236.949219 170.394531 236.949219 182.347656 C 236.949219 194.300781 227.257812 203.992188 215.304688 203.992188 C 208.492188 203.992188 202.207031 200.796875 198.175781 195.582031 L 176.96875 195.671875 C 173.617188 200.140625 168.675781 203.207031 163.136719 204.207031 L 155.214844 221.171875 C 156.109375 223.503906 156.570312 225.988281 156.570312 228.515625 C 156.570312 235.046875 153.519531 240.871094 148.765625 244.636719 C 162.472656 248.523438 174.785156 256.546875 183.914062 267.773438 L 229.074219 267.773438 L 245.425781 235.492188 C 267.957031 229.835938 283.851562 230.660156 275.675781 203.257812 C 282.945312 196.308594 287.429688 193.773438 279.242188 187.703125 C 282.652344 185.945312 283.730469 184.242188 284.21875 181.898438 L 278.300781 170.695312 C 290.140625 163.910156 295.5625 157.136719 291.382812 152.304688 L 264.382812 121.3125 C 259.800781 64.804688 222.804688 39.191406 183.132812 37.019531 C 183.171875 37.652344 183.199219 38.28125 183.199219 38.921875 C 183.199219 42.25 182.609375 45.523438 181.46875 48.613281 Z M 175.144531 36.898438 C 174.128906 26.859375 165.648438 19.023438 155.34375 19.023438 C 144.347656 19.023438 135.4375 27.933594 135.4375 38.921875 C 135.4375 41.074219 135.777344 43.148438 136.410156 45.085938 C 139.003906 53.0625 146.5 58.828125 155.34375 58.828125 C 158.671875 58.828125 161.808594 58.011719 164.5625 56.570312 L 199.128906 107.257812 C 195.558594 110.859375 193.355469 115.808594 193.355469 121.269531 L 193.375 122.113281 L 167.097656 131.640625 C 164.335938 128.15625 160.066406 125.914062 155.273438 125.914062 C 146.949219 125.914062 140.191406 132.667969 140.191406 140.996094 C 140.191406 149.324219 146.949219 156.070312 155.273438 156.070312 C 163.386719 156.070312 170.003906 149.65625 170.339844 141.625 L 196.5625 132.113281 C 200.117188 137.566406 206.265625 141.175781 213.253906 141.175781 C 224.25 141.175781 233.160156 132.257812 233.160156 121.269531 C 233.160156 110.277344 224.253906 101.363281 213.253906 101.363281 C 211.523438 101.363281 209.84375 101.585938 208.242188 102 L 172.320312 49.316406 C 174.179688 46.289062 175.242188 42.730469 175.242188 38.921875 C 175.242188 38.242188 175.207031 37.566406 175.144531 36.898438 Z M 128.933594 218.097656 C 125.609375 220.363281 123.421875 224.183594 123.421875 228.511719 C 123.421875 235.042969 128.394531 240.417969 134.753906 241.054688 C 135.171875 241.09375 135.59375 241.113281 136.019531 241.113281 C 142.980469 241.113281 148.625 235.46875 148.625 228.511719 C 148.625 225.839844 147.792969 223.363281 146.375 221.324219 L 157.941406 196.546875 L 159.203125 196.601562 C 165.167969 196.601562 170.28125 192.9375 172.40625 187.734375 L 202.671875 187.601562 C 204.730469 192.554688 209.617188 196.03125 215.308594 196.03125 C 222.871094 196.03125 228.996094 189.902344 228.996094 182.34375 C 228.996094 174.785156 222.871094 168.65625 215.308594 168.65625 C 209.597656 168.65625 204.707031 172.152344 202.652344 177.125 L 172.527344 177.253906 C 170.480469 171.894531 165.285156 168.089844 159.207031 168.089844 C 154.503906 168.089844 150.332031 170.371094 147.730469 173.886719 L 122.792969 160.230469 C 123.050781 159.050781 123.1875 157.816406 123.1875 156.5625 C 123.1875 151.199219 120.761719 146.410156 116.953125 143.226562 L 127.386719 117.433594 C 128.472656 117.570312 129.574219 117.644531 130.691406 117.644531 C 144.933594 117.644531 156.472656 106.101562 156.472656 91.859375 C 156.472656 77.621094 144.929688 66.078125 130.691406 66.078125 C 116.453125 66.078125 104.910156 77.621094 104.910156 91.859375 C 104.910156 101.261719 109.941406 109.484375 117.457031 113.992188 L 107.246094 139.242188 L 105.808594 139.183594 C 96.214844 139.183594 88.429688 146.960938 88.429688 156.5625 C 88.429688 166.15625 96.214844 173.933594 105.808594 173.933594 C 110.355469 173.933594 114.496094 172.1875 117.589844 169.332031 L 145.097656 184.398438 C 145.503906 187.238281 146.753906 189.800781 148.574219 191.847656 L 137.308594 215.984375 L 136.027344 215.917969 C 133.398438 215.914062 130.953125 216.71875 128.933594 218.097656 Z M 155.265625 117.964844 C 160.273438 117.964844 165.0625 119.585938 168.992188 122.496094 L 185.828125 116.390625 C 186.417969 113.066406 187.605469 109.894531 189.324219 107.007812 L 161.445312 66.113281 C 159.449219 66.558594 157.40625 66.789062 155.34375 66.789062 L 153.164062 66.703125 C 160.070312 72.882812 164.421875 81.859375 164.421875 91.859375 C 164.421875 102.535156 159.460938 112.054688 151.71875 118.242188 C 152.875 118.054688 154.0625 117.964844 155.265625 117.964844 Z M 128.675781 252.050781 C 136.671875 252.050781 143.152344 258.53125 143.152344 266.527344 C 143.152344 274.523438 136.671875 281.003906 128.675781 281.003906 C 120.6875 281.003906 114.203125 274.523438 114.203125 266.527344 C 114.203125 258.53125 120.683594 252.050781 128.675781 252.050781 Z M 83.652344 230.117188 C 91.644531 230.117188 98.125 236.597656 98.125 244.589844 C 98.125 252.585938 91.644531 259.066406 83.652344 259.066406 C 75.65625 259.066406 69.175781 252.585938 69.175781 244.589844 C 69.175781 236.597656 75.65625 230.117188 83.652344 230.117188 Z M 61.285156 179.894531 C 68.027344 179.894531 73.496094 185.359375 73.496094 192.105469 C 73.496094 198.847656 68.027344 204.3125 61.285156 204.3125 C 54.539062 204.3125 49.078125 198.84375 49.078125 192.105469 C 49.078125 185.355469 54.542969 179.894531 61.285156 179.894531 Z M 61.285156 179.894531 " fill-opacity="1" fill-rule="evenodd"/></g><g fill="#ffffff" fill-opacity="1"><g transform="translate(199.903101, 229.824648)"><g><path d="M 4.984375 0 L 4.78125 -0.921875 L 4.734375 -0.921875 C 4.421875 -0.515625 4.101562 -0.238281 3.78125 -0.09375 C 3.46875 0.0507812 3.070312 0.125 2.59375 0.125 C 1.957031 0.125 1.457031 -0.0390625 1.09375 -0.375 C 0.726562 -0.707031 0.546875 -1.175781 0.546875 -1.78125 C 0.546875 -3.070312 1.582031 -3.75 3.65625 -3.8125 L 4.75 -3.84375 L 4.75 -4.25 C 4.75 -4.75 4.640625 -5.117188 4.421875 -5.359375 C 4.210938 -5.597656 3.867188 -5.71875 3.390625 -5.71875 C 2.847656 -5.71875 2.242188 -5.554688 1.578125 -5.234375 L 1.265625 -5.984375 C 1.585938 -6.148438 1.9375 -6.28125 2.3125 -6.375 C 2.6875 -6.476562 3.066406 -6.53125 3.453125 -6.53125 C 4.210938 -6.53125 4.773438 -6.359375 5.140625 -6.015625 C 5.515625 -5.679688 5.703125 -5.140625 5.703125 -4.390625 L 5.703125 0 Z M 2.78125 -0.6875 C 3.382812 -0.6875 3.859375 -0.851562 4.203125 -1.1875 C 4.554688 -1.519531 4.734375 -1.984375 4.734375 -2.578125 L 4.734375 -3.15625 L 3.75 -3.125 C 2.976562 -3.09375 2.421875 -2.96875 2.078125 -2.75 C 1.742188 -2.539062 1.578125 -2.210938 1.578125 -1.765625 C 1.578125 -1.410156 1.679688 -1.140625 1.890625 -0.953125 C 2.097656 -0.773438 2.394531 -0.6875 2.78125 -0.6875 Z M 2.78125 -0.6875 "/></g></g></g></svg>